PLOT

"The Craigslist Killer" follows the dark, mysterious life Philip Markoff (Jake McDorman) conducted online while preparing for a promising
future as a doctor and a life of happiness with his fiancée, Megan McAllister (Agnes Bruckner). Seemingly destined for greatness as one of Boston University's brightest
med students, Markoff could do no wrong in the eyes of Megan, his friends, fellow students and professors.

Encoded By .......: BigPerm
Runtime ..........: 1h 26mn
File Size ........: 798 MB
Resolution .......: 624 x 352 
http://www.imdb.com/title/tt1772373/
Genre ............: Crime,Drama,Thriller
Language .........: English
Subtitles ........: None
General
Complete name : The Craiglist Killer 2011 DVDRip Xvid BigPerm LKRGTCK_BP-LKRG.avi
Format : AVI
Format/Info : Audio Video Interleave
File size : 798 MiB
Duration : 1h 26mn
Overall bit rate : 1 283 Kbps
Writing application : VirtualDubMod 1.5.10.2 (build 2540/release)
Writing library : VirtualDubMod build 2540/release
Video
ID : 0
Format : MPEG-4 Visual
Format profile : Advanced Simple@L5
Format settings, BVOP : Yes
Format settings, QPel : No
Format settings, GMC : No warppoints
Format settings, Matrix : Default (H.263)
Muxing mode : Packed bitstream
Codec ID : XVID
Codec ID/Hint : XviD
Duration : 1h 26mn
Bit rate : 826 Kbps
Width : 624 pixels
Height : 352 pixels
Display aspect ratio : 16:9
Frame rate : 23.976 fps
Color space : YUV
Chroma subsampling : 4:2:0
Bit depth : 8 bits
Scan type : Progressive
Compression mode : Lossy
Bits/(Pixel*Frame) : 0.157
Stream size : 514 MiB (64%)
Writing library : XviD 64
Audio
ID : 1
Format : AC-3
Format/Info : Audio Coding 3
Mode extension : CM (complete main)
Codec ID : 2000
Duration : 1h 26mn
Bit rate mode : Constant
Bit rate : 448 Kbps
Channel(s) : 6 channels
Channel positions : Front: L C R, Side: L R, LFE
Sampling rate : 48.0 KHz
Bit depth : 16 bits
Compression mode : Lossy
Stream size : 279 MiB (35%)
Alignment : Split accross interleaves
Interleave, duration : 42 ms (1.00 video frame)
Interleave, preload duration : 500 ms

 
http://www.shotpix.com/images/54674461391966518995.png 
http://www.shotpix.com/images/92614458320555394231.png 
http://www.shotpix.com/images/38434652504496370885.png 
http://www.shotpix.com/images/63634199479170077163.png